<svg width="512" height="512" 
  xmlns:xlink="http://www.w3.org/1999/xlink" 
  xmlns="http://www.w3.org/2000/svg">
  <defs>
    <path id="a" d="M0 0h512v512H0z"/>
    <clipPath id="b">
      <use xlink:href="#a" clip-rule="evenodd"/>
    </clipPath>
  </defs>
  <g clip-path="url(#b)">
    <use xlink:href="#a" fill="#FFF" fill-opacity="0"/>
    <path d="M0 256C0 114.615 114.615 0 256 0s256 114.615 256 256-114.615 256-256 256S0 397.385 0 256z" fill="#FFF"/>
    <path d="M103.5 140h2.5v100h-2.5V140zM116.5 115h2.5v125h-2.5V115zM129.5 140h2.5v100h-2.5V140zM142.5 165h2.5v75h-2.5v-75zM155.5 140h2.5v100h-2.5V140zM168.5 115h2.5v125h-2.5V115zM181.5 140h2.5v100h-2.5V140zM194.5 165h2.5v75h-2.5v-75z"/>
    <g>
      <path d="M209.5 140h2.5v100h-2.5V140zM222.5 115h2.5v125h-2.5V115zM235.5 140h2.5v100h-2.5V140zM248.5 165h2.5v75h-2.5v-75z"/>
    </g>
    <g>
      <path d="M262.5 140h2.5v100h-2.5V140zM275.5 115h2.5v125h-2.5V115zM288.5 140h2.5v100h-2.5V140zM301.5 165h2.5v75h-2.5v-75z"/>
    </g>
    <g>
      <path d="M315.5 140h2.5v100h-2.5V140zM328.5 115h2.5v125h-2.5V115zM341.5 140h2.5v100h-2.5V140zM354.5 165h2.5v75h-2.5v-75z"/>
    </g>
    <g>
      <path d="M366.5 140h2.5v100h-2.5V140zM379.5 115h2.5v125h-2.5V115zM392.5 140h2.5v100h-2.5V140zM405.5 165h2.5v75h-2.5v-75z"/>
    </g>
    <g>
      <path d="M113.4219 292.0156h16.0312l14.8125 27.6094h9.6563v-.5625l-16.0313-28.9687q6.1407-2.3438 9.586-7.0782 3.4453-4.7343 3.4453-11.1093 0-10.0313-6.211-15.2813-6.2109-5.25-17.7421-5.25H104.375v68.25h9.0469v-27.6094zm62.4812 27.6094l6.4219-17.8594h28.594l6.515 17.8594h9.235l-26.11-68.25h-7.8746l-26.0625 68.25h9.2812zm81.2779-68.25l22.313 55.6875 22.312-55.6875h11.672v68.25h-9v-26.5781l.844-28.6875-22.406 55.2656h-6.891L253.666 264.5l.89 28.5469v26.5781h-9v-68.25h11.625zm115.825 55.6875l-22.312-55.6875h-11.625v68.25h9v-26.5781l-.891-28.5469 22.359 55.125h6.891l22.406-55.2656-.843 28.6875v26.5781h9v-68.25h-11.672l-22.313 55.6875zM127.25 284.6563h-13.8281v-25.9219h13.7812q7.125.0469 10.8985 3.4281 3.7734 3.3812 3.7734 9.7203 0 5.8235-3.9609 9.2985-3.961 3.475-10.6641 3.475zm80.997 9.75h-23.2033l11.5783-31.9219 11.625 31.9219z"/>
      <path d="M192.50002 301h7.99992v80h-7.99992v-80z"/>
      <path d="M162.21999847 364.94399531q4e-7-9.156 4.4520007-16.0439998 4.4520003-6.88799981 12.43200047-10.62599946 7.98000016-3.73799965 18.39600016-3.7379992 10.416 4.6e-7 18.43799983 3.8220008 8.02199984 3.82200036 12.43199953 10.83600055 4.4099997 7.0140002 4.4099993 16.1700002-1.6e-7 3.612-1.26000033 7.34999994-1.26000016 3.73799994-3.5280003 6.76199985l4.78799976 5.6280002-8e-8 1.764-20.832-9e-7 8e-8-1.764 13.02000023-5.20799944q2.68800013-2.93999988 4.2840003-6.8459998 1.59600017-3.90599994 1.59600033-7.68599994 2.6e-7-5.88-3.02399954-10.37400013-3.0239998-4.49400013-8.8199997-7.01400039-5.79599989-2.52000025-13.77599989-2.5200006l-15.372-6.7e-7q-7.98-3.5e-7-13.7760001 2.4359994-5.7960001 2.43599974-8.8620003 6.8039996-3.06600019 4.36799988-3.06600045 10.24799988-1.8e-7 4.284 1.88999963 8.56800008 1.88999981 4.28400008 5.08199969 7.14000022l13.52399978 4.8720006-7e-8 1.764-21.588-9.5e-7 7e-8-1.764 4.28400027-6.04799982q-2.43599987-3.0240001-3.7799997-6.88800016t-1.34399967-7.64400006z"/>
    </g>
    <g>
      <path d="M309 392l46-25-36-10" fill="#673AB7"/>
      <path d="M284 348l35 9-10 35" fill="#4CAF50"/>
      <path d="M329 322l26 45-37-10" fill="#F44336"/>
      <path d="M329 321l-11 36-34-10" fill="#00BCD4"/>
      <path d="M283.49999714 347l45.0333208-26 26 45.0333208-45.0333208 26-26-45.0333208z" fill="none" stroke="#000" stroke-width="2.5" stroke-linecap="round" stroke-linejoin="round"/>
      <path d="M285.718783 347.96457l66.81656492 17.90344198-.258819.9659258L285.459964 348.9304958l.258819-.9659258z" fill="none" stroke="#000" stroke-linecap="round" stroke-linejoin="round"/>
      <path d="M328.43227526 323.12041805l-17.90344198 66.81656492-.96593038-.25882023 17.90344198-66.81656492.96593038.25882023z" fill="none" stroke="#000" stroke-linecap="round" stroke-linejoin="round"/>
    </g>
  </g>
</svg>